<?xml version="1.0" encoding="UTF-8"?>
<svg width="1024" height="1024" viewBox="0 0 1024 1024" xmlns="http://www.w3.org/2000/svg">
  <path d="M270 215 L266 219 L266 221 L265 222 L265 798 L266 799 L266 800 L270 804 L271 804 L272 805 L573 805 L574 804 L583 804 L584 803 L592 803 L593 802 L601 802 L602 801 L605 801 L606 800 L611 800 L612 799 L615 799 L616 798 L619 798 L620 797 L623 797 L624 796 L626 796 L627 795 L630 795 L631 794 L633 794 L634 793 L636 793 L637 792 L638 792 L639 791 L641 791 L642 790 L644 790 L645 789 L646 789 L647 788 L649 788 L650 787 L651 787 L652 786 L654 786 L655 785 L656 785 L657 784 L658 784 L659 783 L660 783 L661 782 L663 782 L665 780 L666 780 L667 779 L668 779 L669 778 L670 778 L671 777 L672 777 L674 775 L675 775 L676 774 L677 774 L678 773 L679 773 L681 771 L682 771 L684 769 L685 769 L687 767 L688 767 L690 765 L691 765 L694 762 L695 762 L698 759 L699 759 L703 755 L704 755 L722 737 L722 736 L728 730 L728 729 L730 727 L730 726 L733 723 L733 722 L735 720 L735 719 L737 717 L737 716 L739 714 L739 713 L740 712 L740 711 L742 709 L742 708 L743 707 L743 706 L744 705 L744 704 L745 703 L745 702 L746 701 L746 700 L747 699 L747 698 L748 697 L748 696 L749 695 L749 694 L750 693 L750 691 L751 690 L751 689 L752 688 L752 687 L753 686 L753 684 L754 683 L754 682 L755 681 L755 678 L756 677 L756 675 L757 674 L757 672 L758 671 L758 668 L759 667 L759 664 L760 663 L760 659 L761 658 L761 656 L762 655 L762 647 L763 646 L763 638 L764 637 L764 612 L763 611 L763 602 L762 601 L762 595 L761 594 L761 590 L760 589 L760 585 L759 584 L759 581 L758 580 L758 577 L757 576 L757 573 L756 572 L756 570 L755 569 L755 567 L754 566 L754 564 L753 563 L753 561 L752 560 L752 559 L751 558 L751 556 L750 555 L750 554 L749 553 L749 552 L748 551 L748 550 L747 549 L747 548 L746 547 L746 546 L745 545 L745 544 L744 543 L744 542 L742 540 L742 539 L741 538 L741 537 L740 536 L740 535 L737 532 L737 531 L735 529 L735 528 L731 524 L731 523 L726 518 L726 517 L718 509 L717 509 L711 503 L710 503 L705 498 L704 498 L701 495 L700 495 L699 494 L698 494 L696 492 L695 492 L694 491 L693 491 L692 490 L691 490 L690 489 L689 489 L688 488 L687 488 L686 487 L685 487 L683 485 L682 485 L681 484 L681 476 L685 472 L686 472 L702 456 L702 455 L706 451 L706 450 L711 445 L711 444 L713 442 L713 441 L715 439 L715 438 L717 436 L717 435 L718 434 L718 433 L720 431 L720 430 L721 429 L721 428 L722 427 L722 426 L723 425 L723 424 L724 423 L724 422 L725 421 L725 420 L726 419 L726 418 L727 417 L727 415 L728 414 L728 413 L729 412 L729 410 L730 409 L730 408 L731 407 L731 405 L732 404 L732 401 L733 400 L733 397 L734 396 L734 394 L735 393 L735 389 L736 388 L736 382 L737 381 L737 358 L736 357 L736 349 L735 348 L735 342 L734 341 L734 337 L733 336 L733 333 L732 332 L732 328 L731 327 L731 325 L730 324 L730 322 L729 321 L729 319 L728 318 L728 316 L727 315 L727 313 L726 312 L726 311 L725 310 L725 308 L723 306 L723 304 L722 303 L722 302 L721 301 L721 300 L720 299 L720 298 L718 296 L718 295 L717 294 L717 293 L716 292 L716 291 L714 289 L714 288 L712 286 L712 285 L710 283 L710 282 L708 280 L708 279 L703 274 L703 273 L685 255 L684 255 L680 251 L679 251 L677 249 L676 249 L673 246 L672 246 L670 244 L669 244 L668 243 L667 243 L665 241 L664 241 L662 239 L661 239 L660 238 L659 238 L657 236 L656 236 L655 235 L654 235 L653 234 L652 234 L651 233 L650 233 L648 231 L647 231 L646 230 L644 230 L642 228 L641 228 L640 227 L638 227 L637 226 L636 226 L635 225 L633 225 L632 224 L630 224 L629 223 L627 223 L626 222 L624 222 L623 221 L621 221 L620 220 L617 220 L616 219 L613 219 L612 218 L609 218 L608 217 L604 217 L603 216 L594 216 L593 215 L576 215 L575 214 L274 214 L273 215 Z" fill="#EF4C23"/>
  <path d="M632 358 L632 366 L486 512 L485 512 L484 513 L484 514 L483 515 L482 515 L481 516 L481 517 L480 518 L479 518 L477 520 L477 521 L476 522 L475 522 L470 527 L461 527 L452 518 L452 517 L451 517 L450 516 L450 515 L449 515 L445 511 L445 510 L444 510 L436 502 L436 501 L432 497 L431 497 L430 496 L430 495 L428 493 L427 493 L426 492 L426 491 L412 477 L411 477 L410 476 L410 475 L395 460 L394 460 L393 459 L393 458 L370 435 L370 426 L406 390 L415 390 L431 406 L432 406 L436 410 L436 411 L438 413 L439 413 L442 416 L442 417 L443 417 L444 418 L444 419 L445 419 L452 426 L452 427 L453 427 L459 433 L459 434 L460 434 L462 436 L463 436 L464 437 L468 437 L469 436 L470 436 L471 435 L472 435 L581 326 L582 326 L583 325 L583 324 L584 323 L585 323 L587 321 L595 321 Z" fill="#222831"/>
</svg>